<svg xmlns="http://www.w3.org/2000/svg" width="78" height="80" viewBox="0 0 78 80">
    <g fill="none" fill-rule="evenodd">
        <g fill="#FFF" fill-rule="nonzero">
            <g>
                <g>
                    <path d="M4.43.06h68.83c.03.467.03.935 0 1.402H4.43V.06zM35.96 10.718v15.605c-.259-.015-.518-.015-.776 0v2.208h6.972v-2.269h-.776V10.718h-1.522v15.62h-2.345v-15.62H35.96zM0 2.223h77.645v.274l-4.309 4.567h-1.325v19.152h-.456V9.287l-1.523 1.431c-.111-.248-.148-.523-.106-.792h-1.218v16.412h-3.426v-15.62h-1.34V7.11h-1.674v27.404h-2.39v-4.187h-1.782v4.217h-2.649V30.19h-1.111v4.354h-.228v-5.892h6.972v-2.314h-1.218v-15.62h-1.766v15.62h-2.77v-15.62h-.99v15.62h-.228V7.11h-1.325v27.404h-8.19v-5.862h7.17v-2.314h-1.218v-15.62h-1.75v15.62h-2.437V10.885h-1.202v15.453h-.564V7.368c-.481-.024-.964-.024-1.446 0v27.176h-8.952V7.14h-1.431v19.122H32.2V10.718c-.406.025-.813.025-1.218 0v15.62h-2.208V10.84c-.664-.054-1.33-.054-1.994 0v15.498h-1.218v2.314h7.308v5.892h-8.191V7.247h-1.523v18.97h-.106V10.58h-1.112v15.635h-2.573V10.84h-1.872v15.376h-1.34v2.193h7.201v6.09h-.228v-4.172h-1.111v4.202h-2.543v-4.202h-1.873v4.217h-2.375V7.247h-1.522v3.35H12.18v15.62H8.967V10.062H7.643v.655c-.548-.426-.868-.776-1.523-1.294V26.17h-.365V6.942c-.507.032-1.016.032-1.523 0L0 2.375v-.152z" transform="translate(-390 -65) translate(390 65)"/>
                </g>
                <path d="M5.755 28.652H6.755V34.544000000000004H5.755z" transform="translate(-390 -65) translate(390 65)"/>
                <path d="M13.732 28.652L13.732 30.327 12.286 30.327 12.286 34.544 9.074 34.544 9.074 29.566 6.638 28.652zM63.851 28.652L71.037 28.652 68.647 30.327 68.616 34.544 65.282 34.544 65.282 30.19 63.851 30.19zM71.6 28.652H72.6V34.544000000000004H71.6zM2.649 35.579H75.026V36.579H2.649zM1.888 37.254H75.909V38.254H1.888zM1.111 38.914H76.807V39.914H1.111zM.228 40.588H77.583V41.588H.228z" transform="translate(-390 -65) translate(390 65)"/>
                <g>
                    <path d="M8.998 8.432v-6.85c0-.793-.244-.914-1.081-.914h-.153V.257H11.053v.41h-.244c-.867 0-1.126.122-1.126.914v8.48l-1.096-.183-6.653-8.084v6.73c0 .806.274.928 1.126.928h.228v.411H0v-.426h.152c.838 0 1.096-.122 1.096-.929V1.581c0-.792-.228-.913-.99-.929H.153v-.41c.4.023.802.023 1.203 0 .39.022.782.022 1.172 0l6.47 8.19zM17.188 6.087l-1.72-4.095-1.72 4.095h3.44zm2.162 1.888c.148.455.386.874.7 1.233.22.162.49.242.762.229v.41h-3.654v-.41c.35.025.7-.038 1.02-.183.198-.106.213-.32.107-.563l-.838-2.01h-3.912c-.371.746-.682 1.52-.93 2.314 0 .442.67.381 1.173.442v.41h-3.045v-.41c.777-.152.868 0 1.203-.73l.67-1.417 1.857-4.171c.442-.975.898-1.98 1.249-3.045h.441l3.197 7.901zM23.644 2.312V.942h-2.132c-.274 0-.441 0-.472.426-.077.346-.128.697-.152 1.05h-.411v-.776c0-.274 0-.96-.076-1.522h7.947c0 .502 0 .99-.076 1.522v.792h-.427c-.023-.354-.074-.705-.152-1.05 0-.366-.182-.412-.472-.427h-2.146V8.219c0 1.08 0 1.172 1.309 1.233v.411h-3.928v-.426c1.325 0 1.31-.152 1.31-1.233l-.122-5.892zM31.834 8.204c0 1.08 0 1.172 1.31 1.233v.41h-3.928v-.41c1.324 0 1.309-.152 1.309-1.233V1.886c0-1.066 0-1.158-1.31-1.234v-.41H33.145v.41c-1.325.076-1.31.168-1.31 1.234v6.318zM42.857 5.174c0-2.725-1.218-4.567-3.776-4.567s-3.486 1.674-3.486 3.912 1.126 4.933 3.851 4.933c2.3-.152 3.41-1.766 3.41-4.293m1.523-.442c.017 1.418-.54 2.783-1.542 3.786-1.003 1.003-2.368 1.56-3.786 1.543-1.34.046-2.636-.478-3.568-1.441-.931-.963-1.41-2.277-1.32-3.614-.046-1.369.491-2.694 1.478-3.643.988-.95 2.332-1.435 3.699-1.335 2.953 0 5.04 1.66 5.04 4.704M53.788 8.432v-6.85c0-.793-.244-.914-1.081-.914h-.228V.257H55.767v.41h-.213c-.868 0-1.127.122-1.127.914v8.48l-.99-.183-6.652-8.084v6.73c0 .806.274.928 1.141.928h.214v.411H44.85v-.426h.213c.853 0 1.096-.122 1.096-.929V1.581c0-.792-.228-.913-.99-.929h-.258v-.41c.4.022.802.022 1.203 0 .39.022.782.022 1.172 0l6.5 8.19zM62.572 6.087l-1.72-4.095-1.75 4.095h3.47zm2.162 1.888c.133.46.373.883.7 1.233.215.162.479.243.747.229v.41h-3.654v-.41c.355.025.71-.038 1.035-.183.183-.106.198-.32.091-.563l-.837-2.01h-3.943c-.366.746-.672 1.52-.914 2.314 0 .442.67.381 1.157.442v.41h-3.044v-.41c.76-.152.852 0 1.187-.73l.67-1.417 1.857-4.171c.442-.975.899-1.98 1.264-3.045h.426l3.258 7.901zM69.423 8.645v.503c.643.064 1.288.09 1.934.076.748.023 1.495-.053 2.223-.229.056-.143.102-.29.137-.441l.32-1.157h.44c0 .182-.09.548-.136.913l-.152 1.447c-.71.036-1.422.036-2.132 0h-4.72v-.32c.64-.107.747-.503.747-1.599V1.886c0-1.066 0-1.158-1.31-1.234v-.41H70.687v.41c-1.31.076-1.31.168-1.31 1.234l.046 6.76zM3.197 22.56v.61c.77.064 1.542.09 2.314.075.887.031 1.773-.06 2.634-.274 0-.152.107-.335.168-.517l.365-1.386h.533c0 .229-.107.655-.168 1.096l-.182 1.72c-.518.092-1.523 0-2.543.092-1.02.092-1.842-.091-2.801-.091-.96 0-1.873 0-2.817.091v-.502c.777-.122.883-.61.883-1.919v-7.048c0-1.28 0-1.386-1.522-1.523v-.502c.73 0 1.522.091 2.314.091s1.522 0 2.36-.091v.609c-1.523.076-1.523.182-1.523 1.522l-.015 7.947zM14.128 22.027c0 1.28 0 1.401 1.523 1.523v.502c-.792 0-1.523-.091-2.36-.091s-1.523 0-2.314.091v-.502c1.522-.076 1.522-.198 1.522-1.523v-7.52c0-1.28 0-1.386-1.522-1.523v-.502c.746 0 1.522.091 2.314.091s1.522 0 2.36-.091v.609c-1.523.076-1.523.182-1.523 1.522v7.414zM20.842 23.17c.503.089 1.012.134 1.523.136.77.06 1.528-.219 2.077-.762.55-.544.836-1.299.785-2.07 0-1.796-1.142-2.496-3.243-2.496h-1.096l-.046 5.191zm0-5.877c.384.049.77.074 1.157.076 1.431 0 2.695-.579 2.695-2.193 0-1.613-1.096-1.979-2.482-1.979-.438-.01-.875.051-1.294.183-.056.403-.082.81-.076 1.218v2.695zm-1.522-2.786c0-1.355-.305-1.432-1.523-1.523v-.502h5.572c1.523 0 2.893.563 2.893 2.299-.165 1.423-1.3 2.538-2.725 2.68 1.66.075 3.288.76 3.288 2.679-.109 1.153-.685 2.21-1.593 2.93-.908.718-2.07 1.034-3.217.876-.592-.061-1.187-.092-1.782-.092s-1.19.03-1.781.092v-.503c.685-.182.792-.533.792-1.142l.076-7.794zM30.068 14.507c0-1.28 0-1.386-1.522-1.523v-.502h5.709c2.253-.107 3.304 1.111 3.304 2.497-.169 1.685-1.51 3.014-3.198 3.166l3.715 4.842c.243.27.582.434.944.456v.503c-.367-.06-.739-.091-1.111-.092-.378 0-.754.031-1.127.092-.259-.35-.441-.64-.67-.929l-3.988-4.948v-.243c.505.062 1.016.062 1.522 0 1.178-.141 2.08-1.114 2.131-2.3 0-1.765-1.309-2.283-2.527-2.283-.55-.005-1.098.067-1.629.213-.1.367-.136.748-.106 1.127v7.52c0 1.28 0 1.401 1.522 1.523v.502c-.792 0-1.522-.09-2.36-.09-.837 0-1.522 0-2.314.09v-.502c1.523-.076 1.523-.198 1.523-1.522l.182-7.597zM47.44 19.515l-2.056-4.902-2.04 4.887 4.095.015zm2.572 2.254c.164.562.45 1.082.838 1.522.263.184.577.28.898.274v.503c-.716 0-1.523-.092-2.177-.092-.655 0-1.523 0-2.177.092v-.503c.416.018.832-.055 1.218-.213.243-.122.258-.396.121-.685l-1.004-2.39h-4.644c-.442.888-.813 1.81-1.111 2.755 0 .533.807.457 1.4.533v.503c-.624 0-1.248-.092-1.887-.092-.64 0-1.264 0-1.888.092v-.503c.928-.183 1.035 0 1.43-.883l.808-1.69 2.207-4.948c.533-1.157 1.066-2.36 1.523-3.532h.533l3.912 9.257zM54.747 14.507c0-1.28 0-1.386-1.522-1.523v-.502h5.693c2.269-.107 3.32 1.111 3.32 2.497-.169 1.685-1.51 3.014-3.198 3.166l3.715 4.842c.24.272.58.437.944.456v.503c-.367-.06-.74-.091-1.111-.092-.378 0-.755.031-1.127.092-.259-.35-.442-.64-.67-.929l-3.897-5.009v-.243c.505.062 1.017.062 1.522 0 1.178-.141 2.08-1.114 2.131-2.3 0-1.765-1.309-2.283-2.527-2.283-.55-.006-1.098.066-1.629.213-.1.367-.136.748-.106 1.127v7.52c0 1.28 0 1.401 1.522 1.523v.503c-.776 0-1.522-.092-2.36-.092-.837 0-1.522 0-2.299.092v-.503c1.523-.076 1.523-.198 1.523-1.522l.076-7.536zM69.393 18.328l1.69-2.664c.624-1.05 1.233-2.07 1.766-3.045h1.31v.243c-1.518 1.773-2.85 3.696-3.974 5.74-.17.393-.248.82-.229 1.248v2.177c0 1.28 0 1.401 1.523 1.523v.502c-.777 0-1.523-.091-2.36-.091-.838 0-1.523 0-2.3.091v-.502c1.523-.076 1.523-.198 1.523-1.523v-2.405c.011-.172-.02-.345-.091-.502l-1.964-3.441c-.533-.929-1.522-2.543-2.695-2.406v-.487l1.736-.335c.472-.091.716.198 1.005.533.289.335.487.7.715 1.066l2.345 4.278zM6.242 30.355c0-1.812-.822-3.045-2.527-3.045S1.4 28.437 1.4 29.93c0 1.492.746 3.288 2.573 3.288 1.522-.106 2.268-1.172 2.268-2.877m.99-.274c.008.943-.363 1.85-1.03 2.517-.667.667-1.574 1.038-2.518 1.03-.898.037-1.769-.31-2.394-.956-.625-.646-.945-1.527-.879-2.424-.023-.9.333-1.769.982-2.394.648-.626 1.53-.95 2.428-.894.878-.093 1.753.199 2.398.8.646.602.998 1.454.967 2.336M9.043 28.178c0-.7 0-.776-.867-.822v-.274h3.349c.507-.027 1.015-.027 1.522 0-.089.286-.135.583-.137.883v.548h-.32c-.004-.303-.045-.605-.121-.898-.447-.12-.909-.171-1.37-.152-.38-.025-.762-.025-1.142 0-.02.192-.02.386 0 .578v1.888c2.01 0 2.131.137 2.146-.761h.229v2.192h-.274c0-1.035-.076-.99-2.147-.913v1.933c0 .716 0 .776.883.822v.274H8.176v-.274c.883 0 .867-.106.867-.822v-4.202zM20.949 30.98l-1.142-2.665-1.142 2.74 2.284-.076zm1.446 1.263c.096.305.257.585.472.822.147.102.323.156.502.152v.274h-2.451v-.274c.24.007.478-.034.7-.121.122 0 .138-.214 0-.381l-.502-1.355h-2.603c-.24.492-.444 1-.61 1.522 0 .305.442.26.777.305v.274h-2.115v-.274c.517-.091.578 0 .79-.487l.458-.96 1.233-2.77c.304-.655.609-1.325.837-1.98h.305l2.207 5.253zM25.364 31.36c0 1.31.67 1.675 1.872 1.675.577.038 1.139-.193 1.523-.625.263-.462.39-.99.365-1.522V27.98c0-.533-.167-.624-.73-.624h-.153v-.274h2.208v.274h-.152c-.579 0-.746.091-.746.624v3.38c0 .478-.144.944-.411 1.34-.245.333-.577.591-.96.746-.401.114-.816.175-1.233.182-.877.13-1.754-.232-2.283-.943-.19-.372-.268-.789-.229-1.203v-3.304c0-.7 0-.776-.868-.822v-.274H26.186v.274c-.883 0-.868.122-.868.822l.046 3.182zM34.94 28.62c.03-.248-.002-.499-.091-.731-.346-.367-.837-.562-1.34-.533-.36-.017-.71.114-.97.36-.262.247-.412.59-.415.95 0 1.994 3.653.334 3.653 2.648-.04.682-.362 1.317-.886 1.755-.524.438-1.206.64-1.884.56-.526-.014-1.044-.133-1.523-.35v-1.401h.305v.441c-.025.17.025.342.137.472.41.295.91.44 1.415.411.831.062 1.557-.556 1.63-1.385 0-2.223-3.624-.153-3.624-2.817.015-.584.27-1.135.705-1.524.435-.39 1.012-.582 1.594-.531.613.03 1.217.169 1.781.411-.015.152-.015.305 0 .457 0 .274 0 .533-.076.807h-.411zM38.898 28.467v-.913h-1.415c-.198 0-.29 0-.32.274-.048.23-.078.465-.092.7h-.38v-.517-.975h5.298v1.492h-.274c-.018-.235-.054-.47-.107-.7 0-.244-.121-.274-.32-.274h-1.43c-.017.304-.017.61 0 .913v3.928c0 .716 0 .777.867.822v.274H38.107v-.274c.883 0 .883-.106.883-.822l-.092-3.928zM43.8 28.178c0-.7 0-.776-.867-.822v-.274h3.136c1.264 0 1.857.624 1.857 1.385-.091.95-.846 1.698-1.796 1.782l2.086 2.71c.136.145.32.236.517.258v.274c-.202-.015-.406-.015-.609 0-.207-.016-.416-.016-.624 0-.152-.182-.259-.365-.38-.517l-2.193-2.801v-.138c.279.03.56.03.838 0 .654-.08 1.155-.62 1.187-1.278.017-.366-.13-.721-.4-.968s-.637-.361-1-.311c-.31-.002-.617.039-.914.122-.037.206-.037.417 0 .624v4.217c0 .715 0 .776.868.822v.274H42.887v-.274c.883 0 .868-.107.868-.822l.046-4.263zM53.91 30.98l-1.157-2.665-1.142 2.74 2.299-.076zm1.43 1.263c.103.302.264.581.473.822.147.102.323.156.502.152v.274H53.88v-.274c.235.007.468-.034.685-.121.122 0 .137-.214 0-.381l-.502-1.355h-2.603c-.24.492-.444 1-.61 1.522 0 .305.442.26.777.305v.274H49.51v-.274c.517-.091.578 0 .807-.487l.441-.96 1.249-2.77c.289-.655.593-1.325.837-1.98h.29l2.207 5.253zM59.055 32.685v.334c.432.024.864.024 1.295 0 .512.024 1.025-.028 1.522-.152.04-.094.076-.19.107-.289l.198-.776h.304c0 .137 0 .38-.091.624l-.107.959c-.471.027-.944.027-1.416 0h-3.045v-.274c.427 0 .487-.335.487-1.081v-3.958c0-.7 0-.777-.867-.823v-.274H60.06v.274c-.883 0-.867.122-.867.823l-.138 4.613zM65.206 32.395c0 .716 0 .777.868.822v.274H63.47v-.274c.867 0 .867-.106.867-.822v-4.217c0-.7 0-.776-.867-.822v-.274H66.074v.274c-.883 0-.868.122-.868.822v4.217zM71.387 30.98l-1.202-2.665-1.142 2.74 2.344-.076zm1.523 1.263c.09.304.247.584.456.822.154.1.334.153.518.152v.274h-2.451v-.274c.234.009.468-.033.685-.121.137 0 .137-.214.076-.381l-.64-1.355h-2.603c-.246.489-.45.998-.609 1.522 0 .305.442.26.777.305v.274h-2.116v-.274c.517-.091.578 0 .807-.487l.441-.96 1.233-2.77c.305-.655.594-1.325.838-1.98h.289l2.299 5.253z" transform="translate(-390 -65) translate(390 65) translate(1.37 46.345)"/>
                </g>
            </g>
        </g>
    </g>
</svg>
